<svg width="80" height="80" viewBox="0 0 80 80" fill="none" xmlns="http://www.w3.org/2000/svg" xmlns:xlink="http://www.w3.org/1999/xlink">
<path d="M77.527,32.2C77.943,32.2 78.302,32.49 78.372,32.898C78.779,35.177 79,37.63 79,40C79.013,49.598 75.474,58.861 69.064,66.004C68.915,66.169 68.708,66.27 68.486,66.284C68.264,66.299 68.046,66.226 67.876,66.082L57.281,57.112C57.19,57.034 57.116,56.938 57.062,56.83C57.009,56.722 56.979,56.604 56.972,56.484C56.966,56.363 56.984,56.243 57.025,56.13C57.066,56.017 57.13,55.913 57.212,55.825C59.346,53.503 60.988,50.773 62.039,47.8L40.867,47.8C40.637,47.8 40.416,47.709 40.254,47.546C40.091,47.384 40,47.163 40,46.933L40,33.067C40,32.59 40.39,32.2 40.867,32.2L77.527,32.2ZM50.716,60.8C50.872,60.719 51.048,60.685 51.222,60.704C51.396,60.722 51.561,60.792 51.696,60.904L62.824,70.32C62.923,70.403 63.002,70.507 63.055,70.625C63.108,70.743 63.133,70.871 63.129,71C63.125,71.13 63.091,71.256 63.031,71.37C62.97,71.484 62.885,71.583 62.78,71.659C56.149,76.444 48.177,79.013 40,79C33.5,79.003 27.102,77.381 21.39,74.28C15.677,71.179 10.831,66.699 7.292,61.246C7.176,61.066 7.132,60.849 7.169,60.638C7.206,60.426 7.321,60.237 7.491,60.107L18.52,51.605C18.621,51.529 18.737,51.475 18.861,51.448C18.984,51.42 19.112,51.419 19.236,51.444C19.36,51.47 19.478,51.521 19.58,51.595C19.683,51.669 19.769,51.764 19.833,51.873C22.865,57.026 27.754,60.823 33.498,62.483C39.242,64.143 45.403,63.541 50.716,60.8ZM16.947,44.013C16.974,44.171 16.958,44.335 16.9,44.485C16.842,44.636 16.745,44.767 16.617,44.866L4.766,53.997C4.661,54.079 4.539,54.135 4.408,54.161C4.278,54.187 4.143,54.183 4.015,54.147C3.887,54.112 3.769,54.047 3.67,53.957C3.572,53.868 3.496,53.757 3.448,53.633C1.824,49.271 0.994,44.654 1,40C1,35.008 1.94,30.233 3.652,25.843C3.7,25.722 3.775,25.614 3.872,25.526C3.968,25.439 4.084,25.375 4.209,25.34C4.334,25.304 4.466,25.298 4.594,25.321C4.722,25.345 4.843,25.397 4.948,25.475L16.786,34.159C17.068,34.362 17.198,34.722 17.124,35.06C16.49,38.005 16.433,41.044 16.947,44.013ZM18.97,27.698C19.386,28.001 19.971,27.88 20.249,27.446C22.361,24.121 25.279,21.383 28.732,19.487C32.185,17.591 36.061,16.598 40,16.6C45.447,16.598 50.722,18.507 54.907,21.995C55.076,22.138 55.292,22.213 55.513,22.205C55.734,22.197 55.945,22.107 56.103,21.952L65.922,12.128C66.004,12.046 66.069,11.948 66.112,11.841C66.155,11.733 66.176,11.618 66.173,11.502C66.171,11.386 66.144,11.272 66.096,11.166C66.047,11.061 65.978,10.966 65.892,10.889C58.773,4.517 49.554,0.996 40,1C33.585,0.996 27.269,2.577 21.611,5.6C15.954,8.624 11.131,12.998 7.569,18.333C7.45,18.517 7.405,18.739 7.444,18.954C7.484,19.17 7.605,19.361 7.782,19.49L18.97,27.698Z" fill="#E62041"/>
</svg>
