<svg width="32" height="42" viewBox="0 0 32 42" fill="none" xmlns="http://www.w3.org/2000/svg" xmlns:xlink="http://www.w3.org/1999/xlink">
<path d="M4,42C2.9,42 1.959,41.609 1.176,40.826C0.393,40.043 0.001,39.101 0,38L0,18C0,16.9 0.392,15.959 1.176,15.176C1.96,14.393 2.901,14.001 4,14L6,14L6,10C6,7.233 6.975,4.875 8.926,2.926C10.877,0.977 13.235,0.001 16,0C18.765,-0.001 21.124,0.974 23.076,2.926C25.028,4.878 26.003,7.236 26,10L26,14L28,14C29.1,14 30.042,14.392 30.826,15.176C31.61,15.96 32.001,16.901 32,18L32,38C32,39.1 31.609,40.042 30.826,40.826C30.043,41.61 29.101,42.001 28,42L4,42ZM16,32C17.1,32 18.042,31.609 18.826,30.826C19.61,30.043 20.001,29.101 20,28C19.999,26.899 19.607,25.957 18.826,25.176C18.045,24.395 17.103,24.003 16,24C14.897,23.997 13.956,24.389 13.176,25.176C12.396,25.963 12.004,26.904 12,28C11.996,29.096 12.388,30.038 13.176,30.826C13.964,31.614 14.905,32.005 16,32ZM10,14L22,14L22,10C22,8.333 21.417,6.917 20.25,5.75C19.083,4.583 17.667,4 16,4C14.333,4 12.917,4.583 11.75,5.75C10.583,6.917 10,8.333 10,10L10,14Z" fill="#E62041"/>
</svg>
