<svg width="106" height="132" viewBox="0 0 106 132" fill="none" xmlns="http://www.w3.org/2000/svg" xmlns:xlink="http://www.w3.org/1999/xlink">
<path d="M53,130.833C37.749,126.993 25.157,118.242 15.225,104.579C5.293,90.916 0.329,75.748 0.333,59.075L0.333,18.917L53,-0.833L105.667,18.917L105.667,59.075C105.667,75.753 100.703,90.923 90.775,104.586C80.848,118.248 68.256,126.997 53,130.833ZM33.25,91.333L72.75,91.333L72.75,58.417L66.167,58.417L66.167,51.833C66.167,48.212 64.879,45.114 62.302,42.538C59.726,39.961 56.625,38.671 53,38.667C49.375,38.662 46.276,39.953 43.704,42.538C41.133,45.123 39.842,48.221 39.833,51.833L39.833,58.417L33.25,58.417L33.25,91.333ZM46.417,58.417L46.417,51.833C46.417,49.968 47.049,48.406 48.313,47.146C49.577,45.886 51.139,45.254 53,45.25C54.861,45.246 56.426,45.878 57.694,47.146C58.962,48.414 59.592,49.977 59.583,51.833L59.583,58.417L46.417,58.417Z" fill="#E62041"/>
</svg>
