<svg width="88" height="88" viewBox="0 0 88 88" fill="none" xmlns="http://www.w3.org/2000/svg" xmlns:xlink="http://www.w3.org/1999/xlink">
<path d="M87.333,44C87.333,20.08 67.92,0.667 44,0.667C20.08,0.667 0.667,20.08 0.667,44C0.667,64.973 15.573,82.437 35.333,86.467L35.333,57L26.667,57L26.667,44L35.333,44L35.333,33.167C35.333,24.803 42.137,18 50.5,18L61.333,18L61.333,31L52.667,31C50.283,31 48.333,32.95 48.333,35.333L48.333,44L61.333,44L61.333,57L48.333,57L48.333,87.117C70.217,84.95 87.333,66.49 87.333,44Z" fill="#E62041"/>
</svg>
