<svg width="44" height="38" viewBox="0 0 44 38" fill="none" xmlns="http://www.w3.org/2000/svg" xmlns:xlink="http://www.w3.org/1999/xlink">
<path d="M21.66,12L28,18.32L28,18C28,16.409 27.368,14.883 26.243,13.757C25.117,12.632 23.591,12 22,12L21.66,12ZM13.06,13.6L16.16,16.7C16.06,17.12 16,17.54 16,18C16,19.591 16.632,21.117 17.757,22.243C18.883,23.368 20.409,24 22,24C22.44,24 22.88,23.94 23.3,23.84L26.4,26.94C25.06,27.6 23.58,28 22,28C19.348,28 16.804,26.946 14.929,25.071C13.054,23.196 12,20.652 12,18C12,16.42 12.4,14.94 13.06,13.6ZM2,2.54L6.56,7.1L7.46,8C4.16,10.6 1.56,14 0,18C3.46,26.78 12,33 22,33C25.1,33 28.06,32.4 30.76,31.32L31.62,32.16L37.46,38L40,35.46L4.54,0M22,8C24.652,8 27.196,9.054 29.071,10.929C30.946,12.804 32,15.348 32,18C32,19.28 31.74,20.52 31.28,21.64L37.14,27.5C40.14,25 42.54,21.72 44,18C40.54,9.22 32,3 22,3C19.2,3 16.52,3.5 14,4.4L18.34,8.7C19.48,8.26 20.7,8 22,8Z" fill="#E62041"/>
</svg>
