<svg width="42" height="40" viewBox="0 0 42 40" fill="none" xmlns="http://www.w3.org/2000/svg" xmlns:xlink="http://www.w3.org/1999/xlink">
<path d="M22.057,0C24.307,0.006 25.449,0.018 26.435,0.046L26.823,0.06C27.271,0.076 27.713,0.096 28.247,0.12C30.375,0.22 31.827,0.556 33.101,1.05C34.421,1.558 35.533,2.246 36.645,3.356C37.662,4.356 38.449,5.565 38.951,6.9C39.445,8.174 39.781,9.626 39.881,11.756C39.905,12.288 39.925,12.73 39.941,13.18L39.953,13.568C39.983,14.552 39.995,15.694 39.999,17.944L40.001,19.436L40.001,22.056C40.006,23.515 39.991,24.974 39.955,26.432L39.943,26.82C39.927,27.27 39.907,27.712 39.883,28.244C39.783,30.374 39.443,31.824 38.951,33.1C38.451,34.436 37.663,35.645 36.645,36.644C35.645,37.661 34.436,38.448 33.101,38.95C31.827,39.444 30.375,39.78 28.247,39.88C27.773,39.902 27.298,39.922 26.823,39.94L26.435,39.952C25.449,39.98 24.307,39.994 22.057,39.998L20.565,40L17.947,40C16.488,40.005 15.028,39.99 13.569,39.954L13.181,39.942C12.706,39.924 12.232,39.903 11.757,39.88C9.629,39.78 8.177,39.444 6.901,38.95C5.567,38.449 4.358,37.662 3.359,36.644C2.341,35.645 1.554,34.435 1.051,33.1C0.557,31.826 0.221,30.374 0.121,28.244C0.099,27.769 0.079,27.295 0.061,26.82L0.051,26.432C0.014,24.974 -0.002,23.515 0.001,22.056L0.001,17.944C-0.004,16.485 0.01,15.026 0.045,13.568L0.059,13.18C0.075,12.73 0.095,12.288 0.119,11.756C0.219,9.626 0.555,8.176 1.049,6.9C1.551,5.564 2.341,4.354 3.361,3.356C4.359,2.339 5.567,1.552 6.901,1.05C8.177,0.556 9.627,0.22 11.757,0.12C12.289,0.096 12.733,0.076 13.181,0.06L13.569,0.048C15.028,0.012 16.486,-0.003 17.945,0.002L22.057,0ZM20.001,10C17.349,10 14.805,11.054 12.93,12.929C11.055,14.804 10.001,17.348 10.001,20C10.001,22.652 11.055,25.196 12.93,27.071C14.805,28.946 17.349,30 20.001,30C22.653,30 25.197,28.946 27.072,27.071C28.948,25.196 30.001,22.652 30.001,20C30.001,17.348 28.948,14.804 27.072,12.929C25.197,11.054 22.653,10 20.001,10ZM20.001,14C20.789,14 21.569,14.155 22.297,14.456C23.025,14.758 23.687,15.2 24.244,15.757C24.801,16.314 25.243,16.975 25.545,17.703C25.847,18.431 26.002,19.211 26.002,19.999C26.002,20.787 25.847,21.567 25.546,22.295C25.244,23.023 24.803,23.685 24.246,24.242C23.688,24.799 23.027,25.241 22.299,25.543C21.571,25.845 20.791,26 20.003,26C18.412,26 16.886,25.368 15.761,24.243C14.635,23.117 14.003,21.591 14.003,20C14.003,18.409 14.635,16.883 15.761,15.757C16.886,14.632 18.412,14 20.003,14M30.503,7C29.84,7 29.204,7.263 28.735,7.732C28.267,8.201 28.003,8.837 28.003,9.5C28.003,10.163 28.267,10.799 28.735,11.268C29.204,11.737 29.84,12 30.503,12C31.166,12 31.802,11.737 32.271,11.268C32.74,10.799 33.003,10.163 33.003,9.5C33.003,8.837 32.74,8.201 32.271,7.732C31.802,7.263 31.166,7 30.503,7Z" fill="#000000"/>
</svg>
