<svg width="44" height="30" viewBox="0 0 44 30" fill="none" xmlns="http://www.w3.org/2000/svg" xmlns:xlink="http://www.w3.org/1999/xlink">
<path d="M22,9C20.409,9 18.883,9.632 17.757,10.757C16.632,11.883 16,13.409 16,15C16,16.591 16.632,18.117 17.757,19.243C18.883,20.368 20.409,21 22,21C23.591,21 25.117,20.368 26.243,19.243C27.368,18.117 28,16.591 28,15C28,13.409 27.368,11.883 26.243,10.757C25.117,9.632 23.591,9 22,9ZM22,25C19.348,25 16.804,23.946 14.929,22.071C13.054,20.196 12,17.652 12,15C12,12.348 13.054,9.804 14.929,7.929C16.804,6.054 19.348,5 22,5C24.652,5 27.196,6.054 29.071,7.929C30.946,9.804 32,12.348 32,15C32,17.652 30.946,20.196 29.071,22.071C27.196,23.946 24.652,25 22,25ZM22,0C12,0 3.46,6.22 0,15C3.46,23.78 12,30 22,30C32,30 40.54,23.78 44,15C40.54,6.22 32,0 22,0Z" fill="#E62041"/>
</svg>
