<svg width="46" height="48" viewBox="0 0 46 48" fill="none" xmlns="http://www.w3.org/2000/svg" xmlns:xlink="http://www.w3.org/1999/xlink">
<path d="M45.764,47.04C45.609,47.332 45.385,47.574 45.116,47.743C44.847,47.911 44.542,48 44.231,48L1.768,48C1.457,48 1.152,47.911 0.883,47.742C0.615,47.573 0.392,47.331 0.237,47.039C0.082,46.747 0,46.417 0,46.08C0,45.743 0.082,45.412 0.237,45.12C3.605,38.802 8.796,34.271 14.854,32.124C11.857,30.188 9.529,27.239 8.227,23.729C6.925,20.219 6.721,16.343 7.646,12.694C8.571,9.046 10.574,5.829 13.348,3.535C16.121,1.242 19.512,0 22.999,0C26.487,0 29.877,1.242 32.651,3.535C35.425,5.829 37.428,9.046 38.353,12.694C39.278,16.343 39.074,20.219 37.772,23.729C36.469,27.239 34.141,30.188 31.145,32.124C37.203,34.271 42.393,38.802 45.762,45.12C45.917,45.412 46,45.743 46,46.08C46,46.417 45.919,46.748 45.764,47.04Z" fill="#E62041"/>
</svg>
